<?xml version="1.0" encoding="utf-8" ?><svg xmlns="http://www.w3.org/2000/svg" xmlns:xlink="http://www.w3.org/1999/xlink" width="877" height="351" viewBox="0 0 877 351"><clipPath id="cl_3"><rect width="877" height="351"/></clipPath><g clip-path="url(#cl_3)"><path fill="#FCFCFC" transform="translate(-73 -326)" d="M123.293 536.472C123.969 526.729 125.597 515.897 126.908 506.143L132.924 461.455C136.07 437.745 137.815 413.665 143.988 390.548C154.858 349.843 190.045 349.42 224.793 351.812C286.147 356.036 269.877 402.38 266.939 444.213C250.649 443.949 234.385 444.178 218.118 444.019C218.942 438.203 219.973 432.307 220.584 426.368C221.561 415.25 227.01 397.572 209.994 396.737C206.399 396.561 199.71 396.574 196.754 398.772C190.076 403.735 189.282 415.249 188.139 422.882C187.53 426.947 187.092 431.322 186.586 435.47L181.54 475.952L174.203 532.643C172.565 545.364 170.648 558.091 170.008 571.041C169.43 582.719 171.435 586.086 183.32 586.908C200.423 588.089 202.408 576.793 204.405 562.343C206.44 547.62 208.766 532.092 210.144 517.036L193.122 517.159C194.887 504.065 196.558 490.957 198.134 477.838L263.78 477.898C262.772 485.085 253.172 550.479 253.904 553.967L253.59 556.657C246.871 556.226 238.029 556.488 231.146 556.511C230.82 561.396 230.104 566.876 229.866 571.566C232.576 571.56 249.176 571.19 250.551 572.064L250.77 572.377C248.916 587.283 246.318 604.244 245.083 619.036C244.809 622.271 244.321 625.791 243.936 629.04C233.436 628.915 222.935 628.889 212.434 628.962L212.451 619.393C196.032 629.513 179.432 634.267 159.995 632.472C143.094 630.912 133.998 625.209 123.519 612.525C128.751 612.626 136.575 612.949 141.999 612.502C143.075 612.413 143.196 610.818 143.58 609.525L142.901 608.436C140.854 607.315 124.459 607.943 120.906 608.002C116.127 591.728 118.945 569.689 120.804 552.89C120.477 552.126 120.717 552.521 119.981 551.773C116.161 551.344 110.722 551.613 106.761 551.69L107.074 545.912L132.982 545.945C133.37 542.959 133.92 539.38 134.144 536.438L123.293 536.472Z"/><path fill="#2EE4DE" transform="translate(-73 -326)" d="M230.515 606.693L230.533 619.002L245.083 619.036C244.809 622.271 244.321 625.791 243.936 629.04C233.436 628.915 222.935 628.889 212.434 628.962L212.451 619.393C196.032 629.513 179.432 634.267 159.995 632.472C143.094 630.912 133.998 625.209 123.519 612.525C128.751 612.626 136.575 612.949 141.999 612.502C143.075 612.413 143.196 610.818 143.58 609.525C143.419 611.537 143.136 611.246 143.915 612.772C148.881 613.113 154.191 613.003 159.199 612.963C179.915 612.8 200.699 613.162 221.408 612.916C224.381 610.923 227.668 608.809 230.515 606.693Z"/><path fill="#C219D9" transform="translate(-73 -326)" d="M106.761 551.69L107.074 545.912L132.982 545.945C132.767 547.87 132.461 550.089 132.362 551.998C129.725 551.956 123.464 551.674 121.225 552.217L120.804 552.89C120.477 552.126 120.717 552.521 119.981 551.773C116.161 551.344 110.722 551.613 106.761 551.69Z"/><path fill="#FCFCFC" transform="translate(-73 -326)" d="M774.146 354.516C790.374 354.804 806.606 354.882 822.837 354.751C819.182 373.676 816.993 396.376 814.359 415.776C812.853 426.871 809.324 449.196 808.916 459.989L838.839 460.004C842.894 425.214 848.591 389.155 852.085 354.553C868.124 354.743 884.166 354.759 900.206 354.602C896.45 376.684 894.041 403.567 891.125 426.357L885.919 466.259C884.922 473.674 883.444 482.638 882.871 489.977L868.654 489.95C868.512 492.046 868.411 494.392 868.159 496.455C874.566 496.469 881.21 496.564 887.594 496.428C885.727 506.279 883.814 520.597 882.887 530.719L872.994 530.491C872.917 533.947 872.886 537.526 872.734 540.967L874.005 541.911C874.452 545.332 871.281 571.068 870.986 577.189C864.686 577.074 858.385 577.019 852.083 577.026L851.806 583.526C858.281 583.466 864.872 583.471 871.334 583.337C870.88 585.647 870.89 585.871 869.755 587.876C868.363 588.859 868.348 590.023 867.98 592.073C867.758 593.37 867.551 594.67 867.361 595.972C851.857 595.664 836.111 596.12 820.547 595.868L831.84 508.442C822.263 508.485 811.2 508.539 801.747 507.906C800.767 521.885 797.268 540.375 795.609 554.835C794.742 562.399 791.844 585.832 790.139 591.993L789.638 591.865C786.172 591.373 776.531 591.525 772.729 591.524L742.19 591.561C744.087 584.725 746.506 564.405 747.619 556.546C751.286 531.05 754.766 505.527 758.058 479.98L741.648 480.063L741.977 473.584L764.994 473.623C765.069 471.79 765.271 470.079 764.799 468.317C763.22 467.091 762.694 467.467 760.281 467.243C762.8 435.07 768.42 402.194 771.953 370.055C772.488 365.19 773.224 359.31 774.146 354.516Z"/><path fill="#8712E7" transform="translate(-73 -326)" d="M760.281 467.243C767.278 466.728 778.957 467.123 786.252 467.175C785.685 471.447 785.079 475.715 784.435 479.976L758.058 479.98L741.648 480.063L741.977 473.584L764.994 473.623C765.069 471.79 765.271 470.079 764.799 468.317C763.22 467.091 762.694 467.467 760.281 467.243Z"/><path fill="#8712E7" transform="translate(-73 -326)" d="M851.589 530.499C858.724 530.533 865.859 530.531 872.994 530.491C872.917 533.947 872.886 537.526 872.734 540.967C865.646 541.123 858.067 540.985 850.941 540.983C850.951 537.638 851.327 533.871 851.589 530.499Z"/><path fill="#FCFCFC" transform="translate(-73 -326)" d="M614.586 470.62L618.806 434.508C621.714 410.274 624.558 379.177 644.926 362.557C660.48 349.866 689.128 350.429 708.328 352.075C719.796 353.059 733.816 357.706 741.053 367.258C756.926 388.21 747.036 425.452 744.939 450.426C729.438 450.292 712.948 449.94 697.501 450.36C699.183 439.194 705.042 411.981 700.214 400.681C698.067 395.656 679.783 395.434 676.47 399.656C673.64 402.876 672.684 406.89 671.832 411.224C667.956 433.615 665.74 456.601 662.75 479.136C660.177 498.05 657.757 516.985 655.491 535.939C654.003 548.175 652.258 560.228 651.911 572.621C651.631 582.601 655.288 586.744 665.445 586.72C673.735 586.831 679.147 584.512 681.134 575.831C681.839 572.753 682.466 569.823 682.854 566.564C684.445 553.212 686.683 539.493 687.601 526.088L735.154 526.201C731.25 548.706 731.885 586.012 716.42 605.085C715.625 606.065 712.774 605.66 711.487 605.542C710.742 607.031 709.551 609.628 708.668 610.914C697.332 632.345 669.777 632.924 648.516 632.778C632.134 632.665 609.403 629.891 604.699 610.901C603.466 607.313 602.649 600.651 602.254 596.855L601.584 594.176C599.486 594.619 583.326 594.597 580.411 594.226C579.276 594.081 578.74 592.934 578.278 592.038C578.458 590.653 578.135 591.145 578.904 590.264C582.879 588.842 601.004 589.555 606.35 589.622C606.584 587.812 606.946 586.102 606.585 584.324C604.966 582.966 602.369 583.252 599.96 583.115C601.1 567.974 603.096 551.685 604.622 536.475L616.393 536.458C616.683 531.615 617.245 525.222 617.837 520.43C614.399 520.347 610.73 520.194 607.313 520.285C609.084 508.602 612.029 487.821 612.632 476.316L632.943 476.441L633.1 470.664L614.586 470.62Z"/><path fill="#8712E7" transform="translate(-73 -326)" d="M604.699 610.901L660.845 610.809C676.416 610.735 693.145 610.419 708.668 610.914C697.332 632.345 669.777 632.924 648.516 632.778C632.134 632.665 609.403 629.891 604.699 610.901Z"/><path fill="#2EE4DE" transform="translate(-73 -326)" d="M617.837 520.43L636.508 520.451L633.999 536.338C628.233 536.362 622.13 536.296 616.393 536.458C616.683 531.615 617.245 525.222 617.837 520.43Z"/><path fill="#8712E7" transform="translate(-73 -326)" d="M599.96 583.115C605.381 583.052 610.801 583.053 616.222 583.119L615.977 591.902C612.767 591.924 603.956 591.328 601.93 592.935L601.584 594.176C599.486 594.619 583.326 594.597 580.411 594.226C579.276 594.081 578.74 592.934 578.278 592.038C578.458 590.653 578.135 591.145 578.904 590.264C582.879 588.842 601.004 589.555 606.35 589.622C606.584 587.812 606.946 586.102 606.585 584.324C604.966 582.966 602.369 583.252 599.96 583.115Z"/><path fill="#2EE4DE" transform="translate(-73 -326)" d="M615.977 591.902C619.072 591.619 622.446 590.97 625.27 591.935C626.307 593.185 626.608 593.846 625.575 595.416C621.596 596.557 603.919 594.701 602.393 596.559C602.324 596.644 602.3 596.757 602.254 596.855L601.584 594.176L601.93 592.935C603.956 591.328 612.767 591.924 615.977 591.902Z"/><path fill="#FCFCFC" transform="translate(-73 -326)" d="M298.566 354.57L349.096 354.661C343.415 389.387 340.168 425.932 335.088 460.868C333.423 472.317 332.143 488.882 330.061 499.781C331.583 500.54 333.436 500.14 335.368 500.053C334.996 504.165 334.565 508.372 334.255 512.479L328.099 512.227C327.127 531.588 322.457 552.069 320.76 571.478C320.486 574.601 319.985 578.542 319.427 581.596L376.983 581.594C375.494 592.567 373.822 611.643 371.817 621.828C375.873 622.172 385.245 621.892 389.901 621.986C390.665 614.14 391.515 606.301 392.45 598.473C397.764 597.988 405.227 598.206 410.698 598.219L441.591 598.372C441.397 603.038 440.953 607.69 440.261 612.309C434.321 612.306 426.346 612.531 420.573 612.203C420.39 614.238 420.238 616.546 419.948 618.545L438.142 618.518L437.458 629.078L328.405 629C307.625 628.996 283.906 628.462 263.333 629.085C264.291 620.022 265.191 610.552 266.434 601.551C267.846 591.922 269.173 580.7 270.139 571.035C267.42 571.126 252.161 571.274 250.909 571.942L250.77 572.377L250.551 572.064C249.176 571.19 232.576 571.56 229.866 571.566C230.104 566.876 230.82 561.396 231.146 556.511C238.029 556.488 246.871 556.226 253.59 556.657L253.904 553.967C259.357 554.226 267.065 554.776 272.3 554.039C276.333 529.848 279.548 502.307 282.398 477.993C282.469 476.15 282.996 473.084 283.263 471.16C289.164 433.06 292.441 392.251 298.566 354.57Z"/><defs><linearGradient id="gradient_0" gradientUnits="userSpaceOnUse" x1="344.39053" y1="582.3515" x2="361.18222" y2="646.84851"><stop offset="0" stop-color="#D718D0"/><stop offset="1" stop-color="#9015E7"/></linearGradient></defs><path fill="url(#gradient_0)" transform="translate(-73 -326)" d="M392.45 598.473C397.764 597.988 405.227 598.206 410.698 598.219L441.591 598.372C441.397 603.038 440.953 607.69 440.261 612.309C434.321 612.306 426.346 612.531 420.573 612.203C420.39 614.238 420.238 616.546 419.948 618.545L438.142 618.518L437.458 629.078L328.405 629C307.625 628.996 283.906 628.462 263.333 629.085C264.291 620.022 265.191 610.552 266.434 601.551C272.871 601.573 279.308 601.56 285.745 601.511C284.794 607.396 283.72 615.648 283.303 621.617C312.807 621.895 342.312 621.965 371.817 621.828C375.873 622.172 385.245 621.892 389.901 621.986C390.665 614.14 391.515 606.301 392.45 598.473Z"/><path fill="#8712E7" transform="translate(-73 -326)" d="M272.3 554.039C275.269 554.008 293.766 553.597 295.699 554.248L295.487 556.992C295.217 558.911 295.464 559.522 294.443 560.832C289.323 561.386 279.12 561.084 273.6 561.061C273.505 564.105 273.714 567.663 272.328 570.299C271.57 570.508 270.868 570.734 270.139 571.035C267.42 571.126 252.161 571.274 250.909 571.942L250.77 572.377L250.551 572.064C249.176 571.19 232.576 571.56 229.866 571.566C230.104 566.876 230.82 561.396 231.146 556.511C238.029 556.488 246.871 556.226 253.59 556.657L253.904 553.967C259.357 554.226 267.065 554.776 272.3 554.039Z"/><path transform="translate(-73 -326)" d="M272.3 554.039C275.269 554.008 293.766 553.597 295.699 554.248L295.487 556.992C282.911 556.605 265.589 557.677 253.59 556.657L253.904 553.967C259.357 554.226 267.065 554.776 272.3 554.039Z"/><path fill="#C219D9" transform="translate(-73 -326)" d="M309.977 502.001C314.327 502.032 322.286 502.254 326.214 501.513L326.978 500.011C328.307 499.18 328.032 499.489 330.061 499.781C331.583 500.54 333.436 500.14 335.368 500.053C334.996 504.165 334.565 508.372 334.255 512.479L328.099 512.227L308.199 512.06C308.901 508.852 309.431 505.265 309.977 502.001Z"/><path transform="translate(-73 -326)" d="M283.263 471.16C284.839 472.621 295.224 472.028 298.064 472.007L297.092 478.015L282.398 477.993C282.469 476.15 282.996 473.084 283.263 471.16Z"/><path fill="#FCFCFC" transform="translate(-73 -326)" d="M421.29 354.647C437.667 354.899 454.047 354.99 470.426 354.92C466.135 388.51 462.098 422.132 458.316 455.783C457.031 466.469 455.678 477.146 454.257 487.814C453.348 494.657 452.062 502.571 451.687 509.39C454.289 509.097 455.655 508.982 458.263 509.03C457.504 513.324 457.121 517.07 456.808 521.431C458.404 522.756 470.424 522.193 473.201 522.046C472.534 526.023 471.892 530.004 471.273 533.989C468.165 533.774 450.306 532.832 448.671 534.143L443.647 577.927C443.048 583.542 442.445 593.316 441.591 598.372L410.698 598.219C405.227 598.206 397.764 597.988 392.45 598.473C393.698 588.618 394.83 578.671 396.048 568.807C396.541 564.818 398.729 567.767 401.284 565.921L400.798 565.323C398.921 565.273 398.685 565.523 397.213 564.651C397.109 560.525 399.335 545.297 400.043 540.519C401.369 531.573 402.271 520.78 403.81 512.125C403.47 509.52 403.332 509.913 401.213 509.064C403.852 494.32 405.862 475.688 407.658 460.614C404.358 460.086 398.825 460.288 395.48 460.39C395.843 454.86 396.086 449.323 396.209 443.782C399.844 443.822 405.747 443.872 409.196 443.45L409.686 442.641L416.74 391.419C418.391 379.326 420.27 366.786 421.29 354.647Z"/><path fill="#8712E7" transform="translate(-73 -326)" d="M409.686 442.641L410.21 443.697C413.337 444.312 421.278 444.024 424.807 444L425.03 460.863C421.153 460.92 411.04 461.256 407.658 460.614C404.358 460.086 398.825 460.288 395.48 460.39C395.843 454.86 396.086 449.323 396.209 443.782C399.844 443.822 405.747 443.872 409.196 443.45L409.686 442.641Z"/><path fill="#2EE4DE" transform="translate(-73 -326)" d="M435.635 520.504C440.118 520.591 453.578 519.699 456.808 521.431C458.404 522.756 470.424 522.193 473.201 522.046C472.534 526.023 471.892 530.004 471.273 533.989C468.165 533.774 450.306 532.832 448.671 534.143C445.781 534.895 437.355 534.615 433.968 534.577C434.674 531.411 435.397 523.729 435.635 520.504Z"/><path transform="translate(-73 -326)" d="M401.213 509.064C405.303 509.108 416.846 508.421 419.701 509.97C420.009 511.218 420.076 510.612 419.463 511.782C417.496 512.228 406.503 512.114 403.81 512.125C403.47 509.52 403.332 509.913 401.213 509.064Z"/><path fill="#FCFCFC" transform="translate(-73 -326)" d="M486.36 354.982L620.251 354.68C618.18 370.351 615.789 386.224 613.516 401.885C599.278 401.525 585.036 401.386 570.794 401.468C569.105 421.168 565.703 443.704 563.286 463.572C569.813 464.327 583.313 463.805 590.031 463.693L588.837 469.606C584.959 469.567 564.835 469.064 562.555 469.923L562.293 470.917C561.04 482.023 559.605 493.107 557.989 504.166C556.947 511.251 555.418 519.726 554.692 526.737C549.895 526.253 530.257 527.404 527.45 526.151L527.201 525.108C527.399 523.594 527.73 522.198 527.381 520.738C522.757 520.231 511.995 520.527 506.892 520.54C508.579 513.603 510.786 493.954 511.785 486.427L519.336 428.815C520.478 419.842 521.324 410.506 522.652 401.603C508.549 401.378 493.907 401.598 479.763 401.621C481.76 386.046 483.959 370.499 486.36 354.982Z"/><path fill="#2EE4DE" transform="translate(-73 -326)" d="M563.286 463.572C569.813 464.327 583.313 463.805 590.031 463.693L588.837 469.606C584.959 469.567 564.835 469.064 562.555 469.923L562.293 470.917L562.053 470.074C560.176 468.96 543.387 469.483 539.843 469.513L540.238 463.201C548.021 463.424 555.423 463.065 563.286 463.572Z"/><path fill="#FCFCFC" transform="translate(-73 -326)" d="M504.054 526.149C508.177 526.634 523.164 527.335 526.771 526.28L527.201 525.108L527.45 526.151C530.257 527.404 549.895 526.253 554.692 526.737C557.552 526.977 560.056 526.794 562.912 526.669L561.899 536.783C559.434 536.613 557.11 536.278 554.719 536.792L554.276 537.877C553.085 547.793 550.3 566.347 550.047 575.776C549.844 577.597 549.534 581.338 549.233 583.018C548.417 589.096 546.399 607.374 545.164 612.151L544.714 612.892C539.863 613.313 531.963 613.166 526.868 613.198C516.013 613.283 505.159 613.281 494.305 613.193C496.671 598.117 498.62 582.429 500.75 567.288C501.893 559.171 503.922 545.208 503.995 537.467C502.002 535.65 503.671 528.703 504.054 526.149Z"/><path fill="#8712E7" transform="translate(-73 -326)" d="M504.054 526.149C508.177 526.634 523.164 527.335 526.771 526.28L527.201 525.108L527.45 526.151C530.257 527.404 549.895 526.253 554.692 526.737C557.552 526.977 560.056 526.794 562.912 526.669L561.899 536.783C559.434 536.613 557.11 536.278 554.719 536.792L554.276 537.877C553.926 537.178 554.193 537.527 553.327 536.964C547.13 536.907 507.186 536.437 503.995 537.467C502.002 535.65 503.671 528.703 504.054 526.149Z"/><path fill="#2EE4DE" transform="translate(-73 -326)" d="M550.047 575.776C549.844 577.597 549.534 581.338 549.233 583.018C542.567 582.729 535.159 582.843 528.431 582.822C528.483 580.487 528.688 578.122 528.856 575.79C535.92 575.862 542.984 575.858 550.047 575.776Z"/><path fill="#2EE4DE" transform="translate(-73 -326)" d="M820.547 595.868C836.111 596.12 851.857 595.664 867.361 595.972L863.613 620.924L905.053 620.884L902.789 628.936C891.04 628.446 878.398 628.733 866.592 628.811L815.206 629.003C817.095 617.976 818.875 606.93 820.547 595.868Z"/><path fill="#8712E7" transform="translate(-73 -326)" d="M742.19 591.561L772.729 591.524C776.531 591.525 786.172 591.373 789.638 591.865L790.139 591.993L785.997 620.843C790.699 620.798 795.499 620.698 800.191 620.72L799.001 629.098C778.914 628.92 756.714 628.674 736.701 629.247C737.978 621.354 739.113 613.438 740.105 605.504C749.904 605.503 759.703 605.44 769.501 605.316L770.168 598.978C763.521 598.962 756.337 599.088 749.737 598.909L740.685 599.029L742.19 591.561Z"/><path fill="#C219D9" transform="translate(-73 -326)" d="M742.19 591.561L772.729 591.524C776.531 591.525 786.172 591.373 789.638 591.865L788.987 591.91C779.477 592.496 762.952 590.451 755.389 593.742C754.958 592.98 755.221 593.334 754.595 592.684C753.486 593.895 752.824 595.936 753.07 597.57C754.233 598.283 756.803 597.825 758.722 598.08C755.755 598.867 752.808 598.336 749.737 598.909L740.685 599.029L742.19 591.561Z"/><path fill="#C219D9" transform="translate(-73 -326)" d="M545.164 612.151C547.681 612.812 563.399 612.438 567.069 612.408L566.436 621.422C554.593 620.828 539.311 621.9 528.219 621.07C527.532 625.474 527.084 628.701 526.896 633.156C512.438 633.177 497.98 633.011 483.526 632.66C479.412 632.553 470.775 632.683 467.162 632.012C466.259 630.67 466.57 631.444 466.705 629.443L467.462 628.293C471.273 627.974 487.922 628.237 492.315 628.389L494.305 613.193C505.159 613.281 516.013 613.283 526.868 613.198C531.963 613.166 539.863 613.313 544.714 612.892L545.164 612.151Z"/><path fill="#8712E7" transform="translate(-73 -326)" d="M380.673 651.6C406.451 652.207 434.562 651.581 460.515 651.502C460.199 653.353 460.066 656.085 459.913 658.021C435.07 657.124 405.02 657.846 379.886 658.06L380.673 651.6Z"/><path fill="#8712E7" transform="translate(-73 -326)" d="M643.014 644.308L643.089 644.335C643.956 645.474 643.117 649.16 642.906 651.058C617.127 650.569 589.981 650.996 564.095 651.044C563.067 650.008 563.852 646.474 564.03 645.043C590.36 645.069 616.689 644.824 643.014 644.308Z"/><path fill="#8712E7" transform="translate(-73 -326)" d="M748.114 644.73L751.355 644.71C751.04 647.453 750.605 650.334 750.231 653.083C734.946 652.826 719.08 653.041 703.75 653.042C702.083 653.123 701.004 653.398 699.656 652.491C698.96 650.232 700.115 647.394 700.765 644.867C714.924 645.237 734.023 645.181 748.114 644.73Z"/><path fill="#8712E7" transform="translate(-73 -326)" d="M305.902 645.727L321.757 645.523C321.632 647.328 321.715 649.351 320.753 650.79C316.705 651.317 307.512 650.992 303.016 650.989L267.863 650.992L252.108 651.044L252.981 645.952C269.631 646.006 289.536 646.539 305.902 645.727Z"/><path fill="#2EE4DE" transform="translate(-73 -326)" d="M871.334 583.337C874.255 583.272 887.159 582.67 889.018 583.574C889.103 585.348 889.197 585.814 888.772 587.587C886.022 588.391 873.713 587.734 869.755 587.876C870.89 585.871 870.88 585.647 871.334 583.337Z"/></g></svg>